<?xml version="1.0" standalone="no"?>
<!DOCTYPE svg PUBLIC "-//W3C//DTD SVG 20010904//EN"
 "http://www.w3.org/TR/2001/REC-SVG-20010904/DTD/svg10.dtd">
<svg version="1.0" xmlns="http://www.w3.org/2000/svg"
 width="344.000000pt" height="344.000000pt" viewBox="0 0 344.000000 344.000000"
 preserveAspectRatio="xMidYMid meet">

<g transform="translate(0.000000,344.000000) scale(0.100000,-0.100000)"
fill="#000000" stroke="none">
<path d="M1510 3039 c-391 -84 -696 -374 -795 -755 -70 -270 -21 -582 128
-812 24 -37 211 -291 415 -564 248 -332 381 -502 401 -512 43 -23 93 -20 130
7 17 12 207 256 422 542 429 570 464 626 516 820 23 87 26 120 27 255 0 128
-3 170 -22 243 -94 375 -372 660 -744 763 -133 37 -343 43 -478 13z m389 -154
c177 -37 326 -121 457 -257 129 -134 206 -287 234 -461 17 -104 8 -280 -20
-377 -42 -150 -84 -215 -471 -731 -203 -272 -374 -494 -379 -494 -17 0 -748
986 -788 1063 -120 232 -128 514 -22 750 115 252 355 448 623 506 85 19 279
19 366 1z"/>
<path d="M1592 2530 c-226 -61 -373 -246 -373 -470 -1 -184 94 -344 257 -432
105 -57 258 -74 379 -43 185 49 338 219 364 405 47 347 -285 633 -627 540z
m276 -175 c129 -58 214 -199 197 -330 -42 -340 -518 -410 -663 -97 -35 75 -37
183 -5 254 80 176 291 254 471 173z"/>
</g>
</svg>
